<svg id="esTBhwk1GZj1" xmlns="http://www.w3.org/2000/svg" xmlns:xlink="http://www.w3.org/1999/xlink" viewBox="0 0 400 150" shape-rendering="geometricPrecision" text-rendering="geometricPrecision"><defs><path id="esTBhwk1GZj2" d="M42.6,55.4C45.6,56,48.6,56.5,51.5,57.1C76.8,62.1,101.9,68.2,125,77.4C140.5,83.6,156.8,92,168.5,102.5C171.4,105.1,174,107.8,176.2,110.7C176.3,110.9,177.4,114.8,178,117.6C180.6,116.5,184.9,115.2,190.3,115.1C197.7,115,204.5,117.1,206.9,118C207.3,116.7,207.8,115.4,208.1,110.2C209.6,107.9,213.2,104.1,217.6,99.9C225.5,92.4,236.4,83.4,244.4,78.4C258.9,69.5,276.2,63.8,304,58.7C309.5,57.7,315.8,56.8,322.5,55.9C337.7,53.9,354.7,52.3,368.6,51.1C367,50,364.8,48.5,362.3,46.9C361.7,46.5,361.2,46.2,360.6,45.8C359.5,45.1,358.3,44.3,357.2,43.6C353.5,41.3,349.7,39.1,345.6,37.2C345.5,37.1,345.4,37.1,345.2,37C339.3,34.4,332.6,36.1,326.2,36.8C318.7,37.6,311.2,38.5,303.7,39.6C289.1,41.6,274.7,44.2,260.8,48C245.8,52.1,231.5,57.6,218.9,64.9C212.8,68.4,207.1,72.4,202.2,76.8C198,80.5,191.6,85.6,191.5,90.7C183,79.4,168.3,71.9,153.1,65.8C134.7,58.4,79.7,44.1,63,41.1C55.2,39.7,45.4,37.9,37.3,38.8C36.3,38.9,35.4,39.1,34.5,39.3C31.7,39.9,29,41,26.5,42.2C24.8,43,23.1,43.9,21.6,44.8C20.6,45.4,19.7,45.9,18.8,46.4C18.6,46.5,18.5,46.6,18.3,46.7C16.4,47.8,14.5,48.9,12.7,50C22.7,51.8,32.7,53.6,42.6,55.4Z"/><path id="esTBhwk1GZj3" d="M42.6,55.4C45.6,56,48.6,56.5,51.5,57.1C76.8,62.1,101.9,68.2,125,77.4C140.5,83.6,156.8,92,168.5,102.5C171.4,105.1,174,107.8,176.2,110.7C176.3,110.9,177.4,114.8,178,117.6C180.6,116.5,184.9,115.2,190.3,115.1C197.7,115,204.5,117.1,206.9,118C207.3,116.7,207.8,115.4,208.1,110.2C209.6,107.9,213.2,104.1,217.6,99.9C225.5,92.4,236.4,83.4,244.4,78.4C258.9,69.5,276.2,63.8,304,58.7C309.5,57.7,315.8,56.8,322.5,55.9C337.7,53.9,354.7,52.3,368.6,51.1C367,50,364.8,48.5,362.3,46.9C361.7,46.5,361.2,46.2,360.6,45.8C359.5,45.1,358.3,44.3,357.2,43.6C353.5,41.3,349.7,39.1,345.6,37.2C345.5,37.1,345.4,37.1,345.2,37C339.3,34.4,332.6,36.1,326.2,36.8C318.7,37.6,311.2,38.5,303.7,39.6C289.1,41.6,274.7,44.2,260.8,48C245.8,52.1,231.5,57.6,218.9,64.9C212.8,68.4,207.1,72.4,202.2,76.8C198,80.5,191.6,85.6,191.5,90.7C183,79.4,168.3,71.9,153.1,65.8C134.7,58.4,79.7,44.1,63,41.1C55.2,39.7,45.4,37.9,37.3,38.8C36.3,38.9,35.4,39.1,34.5,39.3C31.7,39.9,29,41,26.5,42.2C24.8,43,23.1,43.9,21.6,44.8C20.6,45.4,19.7,45.9,18.8,46.4C18.6,46.5,18.5,46.6,18.3,46.7C16.4,47.8,14.5,48.9,12.7,50C22.7,51.8,32.7,53.6,42.6,55.4Z"/><path id="esTBhwk1GZj4" d="M42.6,55.4C45.6,56,48.6,56.5,51.5,57.1C76.8,62.1,101.9,68.2,125,77.4C140.5,83.6,156.8,92,168.5,102.5C171.4,105.1,174,107.8,176.2,110.7C176.3,110.9,177.4,114.8,178,117.6C180.6,116.5,184.9,115.2,190.3,115.1C197.7,115,204.5,117.1,206.9,118C207.3,116.7,207.8,115.4,208.1,110.2C209.6,107.9,213.2,104.1,217.6,99.9C225.5,92.4,236.4,83.4,244.4,78.4C258.9,69.5,276.2,63.8,304,58.7C309.5,57.7,315.8,56.8,322.5,55.9C337.7,53.9,354.7,52.3,368.6,51.1C367,50,364.8,48.5,362.3,46.9C361.7,46.5,361.2,46.2,360.6,45.8C359.5,45.1,358.3,44.3,357.2,43.6C353.5,41.3,349.7,39.1,345.6,37.2C345.5,37.1,345.4,37.1,345.2,37C339.3,34.4,332.6,36.1,326.2,36.8C318.7,37.6,311.2,38.5,303.7,39.6C289.1,41.6,274.7,44.2,260.8,48C245.8,52.1,231.5,57.6,218.9,64.9C212.8,68.4,207.1,72.4,202.2,76.8C198,80.5,191.6,85.6,191.5,90.7C183,79.4,168.3,71.9,153.1,65.8C134.7,58.4,79.7,44.1,63,41.1C55.2,39.7,45.4,37.9,37.3,38.8C36.3,38.9,35.4,39.1,34.5,39.3C31.7,39.9,29,41,26.5,42.2C24.8,43,23.1,43.9,21.6,44.8C20.6,45.4,19.7,45.9,18.8,46.4C18.6,46.5,18.5,46.6,18.3,46.7C16.4,47.8,14.5,48.9,12.7,50C22.7,51.8,32.7,53.6,42.6,55.4Z"/><path id="esTBhwk1GZj5" d="M42.6,55.4C45.6,56,48.6,56.5,51.5,57.1C76.8,62.1,101.9,68.2,125,77.4C140.5,83.6,156.8,92,168.5,102.5C171.4,105.1,174,107.8,176.2,110.7C176.3,110.9,177.4,114.8,178,117.6C180.6,116.5,184.9,115.2,190.3,115.1C197.7,115,204.5,117.1,206.9,118C207.3,116.7,207.8,115.4,208.1,110.2C209.6,107.9,213.2,104.1,217.6,99.9C225.5,92.4,236.4,83.4,244.4,78.4C258.9,69.5,276.2,63.8,304,58.7C309.5,57.7,315.8,56.8,322.5,55.9C337.7,53.9,354.7,52.3,368.6,51.1C367,50,364.8,48.5,362.3,46.9C361.7,46.5,361.2,46.2,360.6,45.8C359.5,45.1,358.3,44.3,357.2,43.6C353.5,41.3,349.7,39.1,345.6,37.2C345.5,37.1,345.4,37.1,345.2,37C339.3,34.4,332.6,36.1,326.2,36.8C318.7,37.6,311.2,38.5,303.7,39.6C289.1,41.6,274.7,44.2,260.8,48C245.8,52.1,231.5,57.6,218.9,64.9C212.8,68.4,207.1,72.4,202.2,76.8C198,80.5,191.6,85.6,191.5,90.7C183,79.4,168.3,71.9,153.1,65.8C134.7,58.4,79.7,44.1,63,41.1C55.2,39.7,45.4,37.9,37.3,38.8C36.3,38.9,35.4,39.1,34.5,39.3C31.7,39.9,29,41,26.5,42.2C24.8,43,23.1,43.9,21.6,44.8C20.6,45.4,19.7,45.9,18.8,46.4C18.6,46.5,18.5,46.6,18.3,46.7C16.4,47.8,14.5,48.9,12.7,50C22.7,51.8,32.7,53.6,42.6,55.4Z"/><path id="esTBhwk1GZj6" d="M42.6,55.4C45.6,56,48.6,56.5,51.5,57.1C76.8,62.1,101.9,68.2,125,77.4C140.5,83.6,156.8,92,168.5,102.5C171.4,105.1,174,107.8,176.2,110.7C176.3,110.9,177.4,114.8,178,117.6C180.6,116.5,184.9,115.2,190.3,115.1C197.7,115,204.5,117.1,206.9,118C207.3,116.7,207.8,115.4,208.1,110.2C209.6,107.9,213.2,104.1,217.6,99.9C225.5,92.4,236.4,83.4,244.4,78.4C258.9,69.5,276.2,63.8,304,58.7C309.5,57.7,315.8,56.8,322.5,55.9C337.7,53.9,354.7,52.3,368.6,51.1C367,50,364.8,48.5,362.3,46.9C361.7,46.5,361.2,46.2,360.6,45.8C359.5,45.1,358.3,44.3,357.2,43.6C353.5,41.3,349.7,39.1,345.6,37.2C345.5,37.1,345.4,37.1,345.2,37C339.3,34.4,332.6,36.1,326.2,36.8C318.7,37.6,311.2,38.5,303.7,39.6C289.1,41.6,274.7,44.2,260.8,48C245.8,52.1,231.5,57.6,218.9,64.9C212.8,68.4,207.1,72.4,202.2,76.8C198,80.5,191.6,85.6,191.5,90.7C183,79.4,168.3,71.9,153.1,65.8C134.7,58.4,79.7,44.1,63,41.1C55.2,39.7,45.4,37.9,37.3,38.8C36.3,38.9,35.4,39.1,34.5,39.3C31.7,39.9,29,41,26.5,42.2C24.8,43,23.1,43.9,21.6,44.8C20.6,45.4,19.7,45.9,18.8,46.4C18.6,46.5,18.5,46.6,18.3,46.7C16.4,47.8,14.5,48.9,12.7,50C22.7,51.8,32.7,53.6,42.6,55.4Z"/><path id="esTBhwk1GZj7" d="M42.6,55.4C45.6,56,48.6,56.5,51.5,57.1C76.8,62.1,101.9,68.2,125,77.4C140.5,83.6,156.8,92,168.5,102.5C171.4,105.1,174,107.8,176.2,110.7C176.3,110.9,177.4,114.8,178,117.6C180.6,116.5,184.9,115.2,190.3,115.1C197.7,115,204.5,117.1,206.9,118C207.3,116.7,207.8,115.4,208.1,110.2C209.6,107.9,213.2,104.1,217.6,99.9C225.5,92.4,236.4,83.4,244.4,78.4C258.9,69.5,276.2,63.8,304,58.7C309.5,57.7,315.8,56.8,322.5,55.9C337.7,53.9,354.7,52.3,368.6,51.1C367,50,364.8,48.5,362.3,46.9C361.7,46.5,361.2,46.2,360.6,45.8C359.5,45.1,358.3,44.3,357.2,43.6C353.5,41.3,349.7,39.1,345.6,37.2C345.5,37.1,345.4,37.1,345.2,37C339.3,34.4,332.6,36.1,326.2,36.8C318.7,37.6,311.2,38.5,303.7,39.6C289.1,41.6,274.7,44.2,260.8,48C245.8,52.1,231.5,57.6,218.9,64.9C212.8,68.4,207.1,72.4,202.2,76.8C198,80.5,191.6,85.6,191.5,90.7C183,79.4,168.3,71.9,153.1,65.8C134.7,58.4,79.7,44.1,63,41.1C55.2,39.7,45.4,37.9,37.3,38.8C36.3,38.9,35.4,39.1,34.5,39.3C31.7,39.9,29,41,26.5,42.2C24.8,43,23.1,43.9,21.6,44.8C20.6,45.4,19.7,45.9,18.8,46.4C18.6,46.5,18.5,46.6,18.3,46.7C16.4,47.8,14.5,48.9,12.7,50C22.7,51.8,32.7,53.6,42.6,55.4Z"/><linearGradient id="esTBhwk1GZj11-fill" x1="0" y1="1" x2="1.571634" y2="-0.59602" spreadMethod="pad" gradientUnits="objectBoundingBox" gradientTransform="matrix(1 0 0 1 0 0)"><stop id="esTBhwk1GZj11-fill-0" offset="0%" stop-color="rgb(252,206,192)"/><stop id="esTBhwk1GZj11-fill-1" offset="100%" stop-color="rgb(255,255,255)"/></linearGradient><linearGradient id="esTBhwk1GZj15-fill" x1="-0.192559" y1="-0.192887" x2="1.053309" y2="1.02089" spreadMethod="pad" gradientUnits="objectBoundingBox" gradientTransform="matrix(1 0 0 1 0 0)"><stop id="esTBhwk1GZj15-fill-0" offset="0%" stop-color="rgb(255,255,255)"/><stop id="esTBhwk1GZj15-fill-1" offset="100%" stop-color="rgb(252,206,192)"/></linearGradient></defs><g id="esTBhwk1GZj8"><path id="esTBhwk1GZj9" d="M206.2,120.8L206.5,119.5C206.6,118.9,206.8,118.4,206.9,117.9C204.6,117.1,197.7,114.9,190.3,115C184.9,115.1,180.6,116.4,178,117.5C178.2,118.4,178.4,119.2,178.4,119.7C188.1,120.2,202.1,120.7,206.2,120.8Z" transform="matrix(1 0 0 1 -0.020293 17.118043)" fill="rgb(237,227,217)" stroke="none" stroke-width="1"/><g id="esTBhwk1GZj10"><path id="esTBhwk1GZj11" d="M238.5,90.9C232.2,95.5,226.6,100.6,221.8,106C234.4,96.5,266.7,88.2,296.3,81.8C326.5,75.3,356.5,74.2,356.5,74.2L393.5,55.9C393.2,55.9,341.7,59.4,313.2,63.4C285.2,67.4,258.9,76,238.5,90.9Z" transform="matrix(1 0 0 1 -0.020293 17.118043)" fill="url(#esTBhwk1GZj11-fill)" stroke="none" stroke-width="1"/></g><g id="esTBhwk1GZj12"/><g id="esTBhwk1GZj13"/><g id="esTBhwk1GZj14"><path id="esTBhwk1GZj15" d="M124.9,84.4451C124.8,83.2451,112.3,79.7451,110.5,79.1451C105.9,77.5451,101.2,76.0451,96.5,74.6451C87.6,71.9451,78.4,69.6451,69.2,67.5451C50.2,63.2451,30.7,60.2451,11.3,57.0451C9.6,56.7451,7.9,56.4451,6.4,55.8451L6.1,55.9451L20.3,74.4451C20.3,74.4451,49.1,76.6451,79.3,83.0451C115,90.6451,157.3,101.8451,169.3,113.1451C169,112.6451,166.9,110.3451,166.3,109.8451C153.4,100.8451,140,90.4451,124.9,84.4451Z" transform="matrix(1 0 0 1 -0.020293 17.118043)" fill="url(#esTBhwk1GZj15-fill)" stroke="none" stroke-width="1"/><path id="esTBhwk1GZj16" d="M4.4,55.1C4.4,55.1,4.3,55.1,4.4,55.1C4.3,55.2,4.4,55.2,4.4,55.1C4.7,55.4,5,55.6,5.3,55.8C5.6,56,5.9,56.1,6.2,56.2C6.3,56.2,6.3,56.2,6.4,56.3C7.9,56.9,9.6,57.2,11.3,57.5C30.7,60.7,50.2,63.8,69.2,68C78.4,70.1,87.5,72.4,96.5,75.1C101.2,76.5,105.9,78,110.5,79.6C112.3,80.2,124.7,83.7,124.9,84.9C140,90.9,153.4,101.3,166.3,110.2C166.9,110.6,169,112.9,169.3,113.5C171.1,116.5,170.4,122,170.6,123.7C170.7,124.6,171.5,125.4,172.6,125.7C178.5,127.2,204.5,126.8,208.1,126.7C208.4,126.7,208.9,126.7,209.6,126.7C212.8,126.5,213.9,125.1,214.2,124.3C214.7,123.1,214.8,121.6,214.8,121.4C215.3,115.1,217.1,111.3,221.8,106C221.8,106,221.8,106,221.9,105.9C226.7,100.5,232.4,95.4,238.6,90.8C259,75.9,285.2,67.3,313.2,63.4C341.7,59.4,393.1,55.9,393.5,55.9C393.9,55.9,394.3,55.8,394.6,55.6C395.9,55,397.2,53.7,396.8,52.2C396.5,50.8,395.1,49.8,392.6,49.4C392.3,49.4,392.1,49.3,391.8,49.4C386.9,49.7,378.6,50.3,368.7,51.2C354.8,52.4,337.8,54,322.6,56C316,56.9,309.7,57.8,304.1,58.8C276.2,63.9,259,69.6,244.5,78.5C236.4,83.5,225.6,92.5,217.7,100C213.2,104.2,209.7,108,208.2,110.3C207.9,115.5,207.5,116.8,207,118.1C206.8,118.6,206.7,119,206.6,119.7L206.3,121C202.2,120.9,188.2,120.4,178.6,120C178.5,119.5,178.4,118.7,178.2,117.8C177.6,115,176.5,111.1,176.4,110.9C174.2,108,171.6,105.3,168.7,102.7C157.1,92.2,140.8,83.8,125.2,77.6C102.1,68.4,77,62.3,51.7,57.3C48.7,56.7,45.7,56.1,42.8,55.6C32.9,53.7,22.9,52,12.9,50.3C12.8,50.3,12.8,50.3,12.7,50.3C9.4,49.7,5,49.5,3.6,51.8C2.7,52.7,3.3,54.1,4.4,55.1Z" transform="matrix(1 0 0 1 -0.020293 17.118043)" fill="rgb(239,159,141)" stroke="none" stroke-width="1"/><path id="esTBhwk1GZj17" d="M42.6,55.4C45.6,56,48.6,56.5,51.5,57.1C76.8,62.1,101.9,68.2,125,77.4C140.5,83.6,156.8,92,168.5,102.5C171.4,105.1,174,107.8,176.2,110.7C176.3,110.9,177.4,114.8,178,117.6C180.6,116.5,184.9,115.2,190.3,115.1C197.7,115,204.5,117.1,206.9,118C207.3,116.7,207.8,115.4,208.1,110.2C209.6,107.9,213.2,104.1,217.6,99.9C225.5,92.4,236.4,83.4,244.4,78.4C258.9,69.5,276.2,63.8,304,58.7C309.5,57.7,315.8,56.8,322.5,55.9C337.7,53.9,354.7,52.3,368.6,51.1C367,50,364.8,48.5,362.3,46.9C361.7,46.5,361.2,46.2,360.6,45.8C359.5,45.1,358.3,44.3,357.2,43.6C353.5,41.3,349.7,39.1,345.6,37.2C345.5,37.1,345.4,37.1,345.2,37C339.3,34.4,332.6,36.1,326.2,36.8C318.7,37.6,311.2,38.5,303.7,39.6C289.1,41.6,274.7,44.2,260.8,48C245.8,52.1,231.5,57.6,218.9,64.9C212.8,68.4,207.1,72.4,202.2,76.8C198,80.5,191.6,85.6,191.5,90.7C183,79.4,168.3,71.9,153.1,65.8C134.7,58.4,79.7,44.1,63,41.1C55.2,39.7,45.4,37.9,37.3,38.8C36.3,38.9,35.4,39.1,34.5,39.3C31.7,39.9,29,41,26.5,42.2C24.8,43,23.1,43.9,21.6,44.8C20.6,45.4,19.7,45.9,18.8,46.4C18.6,46.5,18.5,46.6,18.3,46.7C16.4,47.8,14.5,48.9,12.7,50C22.7,51.8,32.7,53.6,42.6,55.4Z" transform="matrix(1 0 0 1 -0.020293 17.118043)" fill="rgb(255,255,255)" stroke="none" stroke-width="1"/></g><g id="esTBhwk1GZj18"><g id="esTBhwk1GZj19"><g id="esTBhwk1GZj20" clip-path="url(#esTBhwk1GZj23)"><g id="esTBhwk1GZj21"><path id="esTBhwk1GZj22" d="M368.7,43.7C364.5,44.2,360.5,44.6,356.4,45C352.3,45.4,348.3,45.9,344.3,46.5C340.3,47.1,336.3,47.7,332.3,48.4C328.3,49.1,324.3,49.9,320.1,50.6C323.7,48.4,327.6,46.9,331.6,45.6C335.6,44.3,339.7,43.4,343.8,42.9C347.9,42.3,352.1,42.1,356.3,42.2C360.4,42.2,364.6,42.7,368.7,43.7Z" transform="matrix(1 0 0 1 -0.020293 17.118043)" fill="rgb(239,239,239)" stroke="none" stroke-width="1"/></g><clipPath id="esTBhwk1GZj23"><use id="esTBhwk1GZj24" width="355.899994" height="82.395233" xlink:href="#esTBhwk1GZj2" fill="rgb(0,0,0)" stroke="none" stroke-width="1"/></clipPath></g></g><g id="esTBhwk1GZj25"><g id="esTBhwk1GZj26" clip-path="url(#esTBhwk1GZj29)"><g id="esTBhwk1GZj27"><path id="esTBhwk1GZj28" d="M197.4,93.1C201.8,87.4,207.1,82.4,212.8,78C214.2,76.9,215.6,75.8,217.2,74.8C218.7,73.8,220.2,72.7,221.7,71.8C223.2,70.8,224.8,69.9,226.4,69C228,68.1,229.5,67.2,231.2,66.4C232.8,65.6,234.4,64.8,236.1,64.1C237.8,63.4,239.4,62.6,241.1,62C244.5,60.7,247.8,59.4,251.3,58.4C258.2,56.3,265.2,54.8,272.4,54.1C265.6,56.3,258.9,58.6,252.3,61.2C249,62.5,245.7,63.8,242.5,65.3C239.3,66.7,236.1,68.2,233,69.8C229.8,71.4,226.8,73,223.7,74.8C220.6,76.5,217.7,78.4,214.7,80.3C208.5,84.2,202.9,88.5,197.4,93.1Z" transform="matrix(1 0 0 1 -0.020293 17.118043)" fill="rgb(239,239,239)" stroke="none" stroke-width="1"/></g><clipPath id="esTBhwk1GZj29"><use id="esTBhwk1GZj30" width="355.899994" height="82.395233" xlink:href="#esTBhwk1GZj3" fill="rgb(0,0,0)" stroke="none" stroke-width="1"/></clipPath></g></g><g id="esTBhwk1GZj31"><g id="esTBhwk1GZj32" clip-path="url(#esTBhwk1GZj35)"><g id="esTBhwk1GZj33"><path id="esTBhwk1GZj34" d="M358.2,37.3C355.3,38.1,352.3,38.6,349.4,39.1C346.5,39.6,343.6,40,340.7,40.3C337.8,40.7,334.9,41,332,41.2C329.1,41.4,326.1,41.7,323.1,41.6C325.8,40.1,328.6,39.1,331.5,38.3C334.4,37.5,337.3,36.9,340.3,36.6C343.3,36.2,346.3,36.1,349.3,36.2C352.3,36.3,355.3,36.5,358.2,37.3Z" transform="matrix(1 0 0 1 -0.020293 17.118043)" fill="rgb(239,239,239)" stroke="none" stroke-width="1"/></g><clipPath id="esTBhwk1GZj35"><use id="esTBhwk1GZj36" width="355.899994" height="82.395233" xlink:href="#esTBhwk1GZj4" fill="rgb(0,0,0)" stroke="none" stroke-width="1"/></clipPath></g></g><g id="esTBhwk1GZj37"><g id="esTBhwk1GZj38" clip-path="url(#esTBhwk1GZj41)"><g id="esTBhwk1GZj39"><path id="esTBhwk1GZj40" d="M133.9,75.1C127.4,73.1,121.1,71.1,114.7,69.1C113.1,68.6,111.5,68.1,109.9,67.6L105.1,66.2C103.5,65.8,101.9,65.2,100.3,64.8L95.5,63.4L90.7,62L85.9,60.7L76.2,58.1C69.7,56.4,63.2,54.8,56.7,53C63.5,53.2,70.2,54,76.8,55.2C80.1,55.7,83.4,56.5,86.7,57.2C90,58,93.3,58.8,96.5,59.7C99.7,60.7,103,61.6,106.2,62.7C109.4,63.8,112.6,64.9,115.7,66.2C121.9,68.9,128.1,71.7,133.9,75.1Z" transform="matrix(1 0 0 1 -0.020293 17.118043)" fill="rgb(239,239,239)" stroke="none" stroke-width="1"/></g><clipPath id="esTBhwk1GZj41"><use id="esTBhwk1GZj42" width="355.899994" height="82.395233" xlink:href="#esTBhwk1GZj5" fill="rgb(0,0,0)" stroke="none" stroke-width="1"/></clipPath></g></g><g id="esTBhwk1GZj43"><g id="esTBhwk1GZj44" clip-path="url(#esTBhwk1GZj47)"><g id="esTBhwk1GZj45"><path id="esTBhwk1GZj46" d="M35,48.6C32.3,48.7,29.7,48.4,27.2,48.1C24.7,47.8,22.1,47.3,19.7,46.8C17.2,46.3,14.7,45.8,12.2,45.2C9.7,44.6,7.2,43.9,4.7,42.9C7.3,42.4,10,42.2,12.6,42.3C15.2,42.4,17.8,42.7,20.4,43.2C23,43.7,25.5,44.4,27.9,45.3C30.3,46.1,32.7,47.1,35,48.6Z" transform="matrix(1 0 0 1 -0.020293 17.118043)" fill="rgb(239,239,239)" stroke="none" stroke-width="1"/></g><clipPath id="esTBhwk1GZj47"><use id="esTBhwk1GZj48" width="355.899994" height="82.395233" xlink:href="#esTBhwk1GZj6" fill="rgb(0,0,0)" stroke="none" stroke-width="1"/></clipPath></g></g><g id="esTBhwk1GZj49"><g id="esTBhwk1GZj50" clip-path="url(#esTBhwk1GZj53)"><g id="esTBhwk1GZj51"><path id="esTBhwk1GZj52" d="M54.8,47C51.1,46.5,47.6,45.7,44.1,44.9C40.6,44.1,37.1,43.2,33.7,42.2C30.2,41.2,26.8,40.2,23.4,39.1C20,38,16.5,36.8,13.2,35.4C16.9,35.3,20.5,35.7,24.1,36.3C27.7,36.9,31.2,37.7,34.7,38.6C38.2,39.6,41.6,40.7,45,42.1C48.4,43.5,51.7,45,54.8,47Z" transform="matrix(1 0 0 1 -0.020293 17.118043)" fill="rgb(239,239,239)" stroke="none" stroke-width="1"/></g><clipPath id="esTBhwk1GZj53"><use id="esTBhwk1GZj54" width="355.899994" height="82.395233" xlink:href="#esTBhwk1GZj7" fill="rgb(0,0,0)" stroke="none" stroke-width="1"/></clipPath></g></g></g><g id="esTBhwk1GZj55"><path id="esTBhwk1GZj56" d="M188.720447,94.872466C188.520447,95.372466,229.631354,35.576095,326.877188,29.972C329.377188,32.672,317.558515,28.124738,317.558515,28.124738C317.558515,28.124738,221.320447,25.172466,188.720447,94.872466Z" transform="matrix(0.996143 -0.08774 0.08774 0.996143 -5.752981 29.138427)" fill="rgb(255,255,255)" stroke="none" stroke-width="1"/></g></g><script><![CDATA[!function(t,n){"object"==typeof exports&&"undefined"!=typeof module?module.exports=n(require("vue")):"function"==typeof define&&define.amd?define(["vue"],n):((t="undefined"!=typeof globalThis?globalThis:t||self).__SVGATOR_PLAYER__=t.__SVGATOR_PLAYER__||{},t.__SVGATOR_PLAYER__["7c8cb2ed"]=n())}(this,(function(){"use strict";function t(t,n){var r=Object.keys(t);if(Object.getOwnPropertySymbols){var e=Object.getOwnPropertySymbols(t);n&&(e=e.filter((function(n){return Object.getOwnPropertyDescriptor(t,n).enumerable}))),r.push.apply(r,e)}return r}function n(n){for(var r=1;r<arguments.length;r++){var e=null!=arguments[r]?arguments[r]:{};r%2?t(Object(e),!0).forEach((function(t){o(n,t,e[t])})):Object.getOwnPropertyDescriptors?Object.defineProperties(n,Object.getOwnPropertyDescriptors(e)):t(Object(e)).forEach((function(t){Object.defineProperty(n,t,Object.getOwnPropertyDescriptor(e,t))}))}return n}function r(t){return(r="function"==typeof Symbol&&"symbol"==typeof Symbol.iterator?function(t){return typeof t}:function(t){return t&&"function"==typeof Symbol&&t.constructor===Symbol&&t!==Symbol.prototype?"symbol":typeof t})(t)}function e(t,n){if(!(t instanceof n))throw new TypeError("Cannot call a class as a function")}function i(t,n){for(var r=0;r<n.length;r++){var e=n[r];e.enumerable=e.enumerable||!1,e.configurable=!0,"value"in e&&(e.writable=!0),Object.defineProperty(t,e.key,e)}}function u(t,n,r){return n&&i(t.prototype,n),r&&i(t,r),t}function o(t,n,r){return n in t?Object.defineProperty(t,n,{value:r,enumerable:!0,configurable:!0,writable:!0}):t[n]=r,t}function a(t){return(a=Object.setPrototypeOf?Object.getPrototypeOf:function(t){return t.__proto__||Object.getPrototypeOf(t)})(t)}function l(t,n){return(l=Object.setPrototypeOf||function(t,n){return t.__proto__=n,t})(t,n)}function f(t,n){if(n&&("object"==typeof n||"function"==typeof n))return n;if(void 0!==n)throw new TypeError("Derived constructors may only return object or undefined");return function(t){if(void 0===t)throw new ReferenceError("this hasn't been initialised - super() hasn't been called");return t}(t)}function s(t){var n=function(){if("undefined"==typeof Reflect||!Reflect.construct)return!1;if(Reflect.construct.sham)return!1;if("function"==typeof Proxy)return!0;try{return Boolean.prototype.valueOf.call(Reflect.construct(Boolean,[],(function(){}))),!0}catch(t){return!1}}();return function(){var r,e=a(t);if(n){var i=a(this).constructor;r=Reflect.construct(e,arguments,i)}else r=e.apply(this,arguments);return f(this,r)}}function c(t,n,r){return(c="undefined"!=typeof Reflect&&Reflect.get?Reflect.get:function(t,n,r){var e=function(t,n){for(;!Object.prototype.hasOwnProperty.call(t,n)&&null!==(t=a(t)););return t}(t,n);if(e){var i=Object.getOwnPropertyDescriptor(e,n);return i.get?i.get.call(r):i.value}})(t,n,r||t)}var h=v(Math.pow(10,-6));function v(t){var n=arguments.length>1&&void 0!==arguments[1]?arguments[1]:6;if(Number.isInteger(t))return t;var r=Math.pow(10,n);return Math.round((+t+Number.EPSILON)*r)/r}function y(t,n){var r=arguments.length>2&&void 0!==arguments[2]?arguments[2]:h;return Math.abs(t-n)<r}var g=Math.PI/180;function d(t){return t}function p(t,n,r){var e=1-r;return 3*r*e*(t*e+n*r)+r*r*r}function b(){var t=arguments.length>0&&void 0!==arguments[0]?arguments[0]:0,n=arguments.length>1&&void 0!==arguments[1]?arguments[1]:0,r=arguments.length>2&&void 0!==arguments[2]?arguments[2]:1,e=arguments.length>3&&void 0!==arguments[3]?arguments[3]:1;return t<0||t>1||r<0||r>1?null:y(t,n)&&y(r,e)?d:function(i){if(i<=0)return t>0?i*n/t:0===n&&r>0?i*e/r:0;if(i>=1)return r<1?1+(i-1)*(e-1)/(r-1):1===r&&t<1?1+(i-1)*(n-1)/(t-1):1;for(var u,o=0,a=1;o<a;){var l=p(t,r,u=(o+a)/2);if(y(i,l))break;l<i?o=u:a=u}return p(n,e,u)}}function m(){return 1}function w(t){return 1===t?1:0}function A(){var t=arguments.length>0&&void 0!==arguments[0]?arguments[0]:1,n=arguments.length>1&&void 0!==arguments[1]?arguments[1]:0;if(1===t){if(0===n)return w;if(1===n)return m}var r=1/t;return function(t){return t>=1?1:(t+=n*r)-t%r}}var x="undefined"!=typeof window&&/(Mac|iPhone|iPod|iPad)/i.test(window.navigator.platform);Object.freeze({Meta:x?"Control":"Meta",Ctrl:"Control",Down:"ArrowDown",Up:"ArrowUp",Left:"ArrowLeft",Right:"ArrowRight",Esc:"Escape",Delete:"Backspace",Space:"Space"});var k=Math.sin,_=Math.cos,S=Math.acos,O=Math.asin,j=Math.tan,E=Math.atan2,P=Math.PI/180,M=180/Math.PI,I=Math.sqrt,B=function(){function t(){var n=arguments.length>0&&void 0!==arguments[0]?arguments[0]:1,r=arguments.length>1&&void 0!==arguments[1]?arguments[1]:0,i=arguments.length>2&&void 0!==arguments[2]?arguments[2]:0,u=arguments.length>3&&void 0!==arguments[3]?arguments[3]:1,o=arguments.length>4&&void 0!==arguments[4]?arguments[4]:0,a=arguments.length>5&&void 0!==arguments[5]?arguments[5]:0;e(this,t),this.m=[n,r,i,u,o,a],this.i=null,this.w=null,this.s=null}return u(t,[{key:"determinant",get:function(){var t=this.m;return t[0]*t[3]-t[1]*t[2]}},{key:"isIdentity",get:function(){if(null===this.i){var t=this.m;this.i=1===t[0]&&0===t[1]&&0===t[2]&&1===t[3]&&0===t[4]&&0===t[5]}return this.i}},{key:"point",value:function(t,n){var r=this.m;return{x:r[0]*t+r[2]*n+r[4],y:r[1]*t+r[3]*n+r[5]}}},{key:"translateSelf",value:function(){var t=arguments.length>0&&void 0!==arguments[0]?arguments[0]:0,n=arguments.length>1&&void 0!==arguments[1]?arguments[1]:0;if(!t&&!n)return this;var r=this.m;return r[4]+=r[0]*t+r[2]*n,r[5]+=r[1]*t+r[3]*n,this.w=this.s=this.i=null,this}},{key:"rotateSelf",value:function(){var t=arguments.length>0&&void 0!==arguments[0]?arguments[0]:0;if(t%=360){var n=k(t*=P),r=_(t),e=this.m,i=e[0],u=e[1];e[0]=i*r+e[2]*n,e[1]=u*r+e[3]*n,e[2]=e[2]*r-i*n,e[3]=e[3]*r-u*n,this.w=this.s=this.i=null}return this}},{key:"scaleSelf",value:function(){var t=arguments.length>0&&void 0!==arguments[0]?arguments[0]:1,n=arguments.length>1&&void 0!==arguments[1]?arguments[1]:1;if(1!==t||1!==n){var r=this.m;r[0]*=t,r[1]*=t,r[2]*=n,r[3]*=n,this.w=this.s=this.i=null}return this}},{key:"skewSelf",value:function(t,n){if(n%=360,(t%=360)||n){var r=this.m,e=r[0],i=r[1],u=r[2],o=r[3];t&&(t=j(t*P),r[2]+=e*t,r[3]+=i*t),n&&(n=j(n*P),r[0]+=u*n,r[1]+=o*n),this.w=this.s=this.i=null}return this}},{key:"resetSelf",value:function(){var t=arguments.length>0&&void 0!==arguments[0]?arguments[0]:1,n=arguments.length>1&&void 0!==arguments[1]?arguments[1]:0,r=arguments.length>2&&void 0!==arguments[2]?arguments[2]:0,e=arguments.length>3&&void 0!==arguments[3]?arguments[3]:1,i=arguments.length>4&&void 0!==arguments[4]?arguments[4]:0,u=arguments.length>5&&void 0!==arguments[5]?arguments[5]:0,o=this.m;return o[0]=t,o[1]=n,o[2]=r,o[3]=e,o[4]=i,o[5]=u,this.w=this.s=this.i=null,this}},{key:"recomposeSelf",value:function(){var t=arguments.length>0&&void 0!==arguments[0]?arguments[0]:null,n=arguments.length>1&&void 0!==arguments[1]?arguments[1]:null,r=arguments.length>2&&void 0!==arguments[2]?arguments[2]:null,e=arguments.length>3&&void 0!==arguments[3]?arguments[3]:null,i=arguments.length>4&&void 0!==arguments[4]?arguments[4]:null;return this.isIdentity||this.resetSelf(),t&&(t.x||t.y)&&this.translateSelf(t.x,t.y),n&&this.rotateSelf(n),r&&(r.x&&this.skewSelf(r.x,0),r.y&&this.skewSelf(0,r.y)),!e||1===e.x&&1===e.y||this.scaleSelf(e.x,e.y),i&&(i.x||i.y)&&this.translateSelf(i.x,i.y),this}},{key:"decompose",value:function(){var t=arguments.length>0&&void 0!==arguments[0]?arguments[0]:0,n=arguments.length>1&&void 0!==arguments[1]?arguments[1]:0,r=this.m,e=r[0]*r[0]+r[1]*r[1],i=[[r[0],r[1]],[r[2],r[3]]],u=I(e);if(0===u)return{origin:{x:v(r[4]),y:v(r[5])},translate:{x:v(t),y:v(n)},scale:{x:0,y:0},skew:{x:0,y:0},rotate:0};i[0][0]/=u,i[0][1]/=u;var o=r[0]*r[3]-r[1]*r[2]<0;o&&(u=-u);var a=i[0][0]*i[1][0]+i[0][1]*i[1][1];i[1][0]-=i[0][0]*a,i[1][1]-=i[0][1]*a;var l=I(i[1][0]*i[1][0]+i[1][1]*i[1][1]);if(0===l)return{origin:{x:v(r[4]),y:v(r[5])},translate:{x:v(t),y:v(n)},scale:{x:v(u),y:0},skew:{x:0,y:0},rotate:0};i[1][0]/=l,i[1][1]/=l,a/=l;var f=0;return i[1][1]<0?(f=S(i[1][1])*M,i[0][1]<0&&(f=360-f)):f=O(i[0][1])*M,o&&(f=-f),a=E(a,I(i[0][0]*i[0][0]+i[0][1]*i[0][1]))*M,o&&(a=-a),{origin:{x:v(r[4]),y:v(r[5])},translate:{x:v(t),y:v(n)},scale:{x:v(u),y:v(l)},skew:{x:v(a),y:0},rotate:v(f)}}},{key:"toString",value:function(){var t=arguments.length>0&&void 0!==arguments[0]?arguments[0]:" ";return null===this.s&&(this.s="matrix("+this.m.map((function(t){return v(t)})).join(t)+")"),this.s}}]),t}();function R(t,n,r){return t>=.5?r:n}function N(t,n,r){return 0===t||n===r?n:t*(r-n)+n}function F(t,n,r){var e=N(t,n,r);return e<=0?0:e}function T(t,n,r){var e=N(t,n,r);return e<=0?0:e>=1?1:e}function q(t,n,r){return 0===t?n:1===t?r:{x:N(t,n.x,r.x),y:N(t,n.y,r.y)}}function L(t,n,r){return 0===t?n:1===t?r:{x:F(t,n.x,r.x),y:F(t,n.y,r.y)}}function C(t,n,r){var e=function(t,n,r){return Math.round(N(t,n,r))}(t,n,r);return e<=0?0:e>=255?255:e}function D(t,n,r){return 0===t?n:1===t?r:{r:C(t,n.r,r.r),g:C(t,n.g,r.g),b:C(t,n.b,r.b),a:N(t,null==n.a?1:n.a,null==r.a?1:r.a)}}function V(t,n,r){var e=n.length;if(e!==r.length)return R(t,n,r);for(var i=new Array(e),u=0;u<e;u++)i[u]=N(t,n[u],r[u]);return i}function z(t,n){for(var r=[],e=0;e<t;e++)r.push(n);return r}function G(t,n){if(--n<=0)return t;var r=(t=Object.assign([],t)).length;do{for(var e=0;e<r;e++)t.push(t[e])}while(--n>0);return t}var Y,U=function(){function t(n){e(this,t),this.list=n,this.length=n.length}return u(t,[{key:"setAttribute",value:function(t,n){for(var r=this.list,e=0;e<this.length;e++)r[e].setAttribute(t,n)}},{key:"removeAttribute",value:function(t){for(var n=this.list,r=0;r<this.length;r++)n[r].removeAttribute(t)}},{key:"style",value:function(t,n){for(var r=this.list,e=0;e<this.length;e++)r[e].style[t]=n}}]),t}(),$=/-./g,Q=function(t,n){return n.toUpperCase()};function H(t){return"function"==typeof t?t:R}function J(t){return t?"function"==typeof t?t:Array.isArray(t)?function(t){var n=arguments.length>1&&void 0!==arguments[1]?arguments[1]:d;if(!Array.isArray(t))return n;switch(t.length){case 1:return A(t[0])||n;case 2:return A(t[0],t[1])||n;case 4:return b(t[0],t[1],t[2],t[3])||n}return n}(t,null):function(t,n){var r=arguments.length>2&&void 0!==arguments[2]?arguments[2]:d;switch(t){case"linear":return d;case"steps":return A(n.steps||1,n.jump||0)||r;case"bezier":case"cubic-bezier":return b(n.x1||0,n.y1||0,n.x2||0,n.y2||0)||r}return r}(t.type,t.value,null):null}function Z(t,n,r){var e=arguments.length>3&&void 0!==arguments[3]&&arguments[3],i=n.length-1;if(t<=n[0].t)return e?[0,0,n[0].v]:n[0].v;if(t>=n[i].t)return e?[i,1,n[i].v]:n[i].v;var u,o=n[0],a=null;for(u=1;u<=i;u++){if(!(t>n[u].t)){a=n[u];break}o=n[u]}return null==a?e?[i,1,n[i].v]:n[i].v:o.t===a.t?e?[u,1,a.v]:a.v:(t=(t-o.t)/(a.t-o.t),o.e&&(t=o.e(t)),e?[u,t,r(t,o.v,a.v)]:r(t,o.v,a.v))}function K(t,n){var r=arguments.length>2&&void 0!==arguments[2]?arguments[2]:null;return t&&t.length?"function"!=typeof n?null:("function"!=typeof r&&(r=null),function(e){var i=Z(e,t,n);return null!=i&&r&&(i=r(i)),i}):null}function W(t,n){return t.t-n.t}function X(t,n,e,i,u){var o,a="@"===e[0],l="#"===e[0],f=Y[e],s=R;switch(a?(o=e.substr(1),e=o.replace($,Q)):l&&(e=e.substr(1)),r(f)){case"function":if(s=f(i,u,Z,J,e,a,n,t),l)return s;break;case"string":s=K(i,H(f));break;case"object":if((s=K(i,H(f.i),f.f))&&"function"==typeof f.u)return f.u(n,s,e,a,t)}return s?function(t,n,r){if(arguments.length>3&&void 0!==arguments[3]&&arguments[3])return t instanceof U?function(e){return t.style(n,r(e))}:function(e){return t.style[n]=r(e)};if(Array.isArray(n)){var e=n.length;return function(i){var u=r(i);if(null==u)for(var o=0;o<e;o++)t[o].removeAttribute(n);else for(var a=0;a<e;a++)t[a].setAttribute(n,u)}}return function(e){var i=r(e);null==i?t.removeAttribute(n):t.setAttribute(n,i)}}(n,e,s,a):null}function tt(t,n,e,i){if(!i||"object"!==r(i))return null;var u=null,o=null;return Array.isArray(i)?o=function(t){if(!t||!t.length)return null;for(var n=0;n<t.length;n++)t[n].e&&(t[n].e=J(t[n].e));return t.sort(W)}(i):(o=i.keys,u=i.data||null),o?X(t,n,e,o,u):null}function nt(t,n,r){if(!r)return null;var e=[];for(var i in r)if(r.hasOwnProperty(i)){var u=tt(t,n,i,r[i]);u&&e.push(u)}return e.length?e:null}function rt(t,n){if(!n.duration||n.duration<0)return null;var r=function(t,n){if(!n)return null;var r=[];if(Array.isArray(n))for(var e=n.length,i=0;i<e;i++){var u=n[i];if(2===u.length){var o=null;if("string"==typeof u[0])o=t.getElementById(u[0]);else if(Array.isArray(u[0])){o=[];for(var a=0;a<u[0].length;a++)if("string"==typeof u[0][a]){var l=t.getElementById(u[0][a]);l&&o.push(l)}o=o.length?1===o.length?o[0]:new U(o):null}if(o){var f=nt(t,o,u[1]);f&&(r=r.concat(f))}}}else for(var s in n)if(n.hasOwnProperty(s)){var c=t.getElementById(s);if(c){var h=nt(t,c,n[s]);h&&(r=r.concat(h))}}return r.length?r:null}(t,n.elements);return r?function(t,n){var r=arguments.length>2&&void 0!==arguments[2]?arguments[2]:1/0,e=arguments.length>3&&void 0!==arguments[3]?arguments[3]:1,i=arguments.length>4&&void 0!==arguments[4]&&arguments[4],u=arguments.length>5&&void 0!==arguments[5]?arguments[5]:1,o=t.length,a=e>0?n:0;i&&r%2==0&&(a=n-a);var l=null;return function(f,s){var c=f%n,h=1+(f-c)/n;s*=e,i&&h%2==0&&(s=-s);var v=!1;if(h>r)c=a,v=!0,-1===u&&(c=e>0?0:n);else if(s<0&&(c=n-c),c===l)return!1;l=c;for(var y=0;y<o;y++)t[y](c);return v}}(r,n.duration,n.iterations||1/0,n.direction||1,!!n.alternate,n.fill||1):null}function et(t){return+("0x"+(t.replace(/[^0-9a-fA-F]+/g,"")||27))}function it(t,n,r){return!t||!r||n>t.length?t:t.substring(0,n)+it(t.substring(n+1),r,r)}function ut(t){var n=arguments.length>1&&void 0!==arguments[1]?arguments[1]:27;return!t||t%n?t%n:ut(t/n,n)}function ot(t,n,r){if(t&&t.length){var e=et(r),i=et(n),u=ut(e)+5,o=it(t,ut(e,5),u);return o=o.replace(/\x7c$/g,"==").replace(/\x2f$/g,"="),o=function(t,n,r){var e=+("0x"+t.substring(0,4));t=t.substring(4);for(var i=n%e+r%27,u=[],o=0;o<t.length;o+=2)if("|"!==t[o]){var a=+("0x"+t[o]+t[o+1])-i;u.push(a)}else{var l=+("0x"+t.substring(o+1,o+1+4))-i;o+=3,u.push(l)}return String.fromCharCode.apply(String,u)}(o=(o=atob(o)).replace(/[\x41-\x5A]/g,""),i,e),o=JSON.parse(o)}}Number.isInteger||(Number.isInteger=function(t){return"number"==typeof t&&isFinite(t)&&Math.floor(t)===t}),Number.EPSILON||(Number.EPSILON=2220446049250313e-31);var at=function(){function t(n,r){var i=arguments.length>2&&void 0!==arguments[2]?arguments[2]:{};e(this,t),this._id=0,this._running=!1,this._rollingBack=!1,this._animations=n,this.duration=r.duration,this.alternate=r.alternate,this.fill=r.fill,this.iterations=r.iterations,this.direction=i.direction||1,this.speed=i.speed||1,this.fps=i.fps||100,this.offset=i.offset||0,this.rollbackStartOffset=0}return u(t,[{key:"_rollback",value:function(){var t=this,n=1/0,r=null;this.rollbackStartOffset=this.offset,this._rollingBack||(this._rollingBack=!0,this._running=!0);this._id=window.requestAnimationFrame((function e(i){if(t._rollingBack){null==r&&(r=i);var u=i-r,o=t.rollbackStartOffset-u,a=Math.round(o*t.speed);if(a>t.duration&&n!=1/0){var l=!!t.alternate&&a/t.duration%2>1,f=a%t.duration;a=(f+=l?t.duration:0)||t.duration}var s=t.fps?1e3/t.fps:0,c=Math.max(0,a);if(c<n-s){t.offset=c,n=c;for(var h=t._animations,v=h.length,y=0;y<v;y++)h[y](c,t.direction)}var g=!1;if(t.iterations>0&&-1===t.fill){var d=t.iterations*t.duration,p=d==a;a=p?0:a,t.offset=p?0:t.offset,g=a>d}a>0&&t.offset>=a&&!g?t._id=window.requestAnimationFrame(e):t.stop()}}))}},{key:"_start",value:function(){var t=this,n=arguments.length>0&&void 0!==arguments[0]?arguments[0]:0,r=-1/0,e=null,i={},u=function u(o){t._running=!0,null==e&&(e=o);var a=Math.round((o-e+n)*t.speed),l=t.fps?1e3/t.fps:0;if(a>r+l&&!t._rollingBack){t.offset=a,r=a;for(var f=t._animations,s=f.length,c=0,h=0;h<s;h++)i[h]?c++:(i[h]=f[h](a,t.direction),i[h]&&c++);if(c===s)return void t._stop()}t._id=window.requestAnimationFrame(u)};this._id=window.requestAnimationFrame(u)}},{key:"_stop",value:function(){this._id&&window.cancelAnimationFrame(this._id),this._running=!1,this._rollingBack=!1}},{key:"play",value:function(){!this._rollingBack&&this._running||(this._rollingBack=!1,this.rollbackStartOffset>this.duration&&(this.offset=this.rollbackStartOffset-(this.rollbackStartOffset-this.offset)%this.duration,this.rollbackStartOffset=0),this._start(this.offset))}},{key:"stop",value:function(){this._stop(),this.offset=0,this.rollbackStartOffset=0;var t=this.direction,n=this._animations;window.requestAnimationFrame((function(){for(var r=0;r<n.length;r++)n[r](0,t)}))}},{key:"reachedToEnd",value:function(){return this.iterations>0&&this.offset>=this.iterations*this.duration}},{key:"restart",value:function(){this._stop(),this.offset=0,this._start()}},{key:"pause",value:function(){this._stop()}},{key:"reverse",value:function(){this.direction=-this.direction}}],[{key:"build",value:function(r,e){return delete r.animationSettings,r.options=ot(r.options,r.root,"7c8cb2ed"),r.animations.map((function(t){var e=ot(t.s,r.root,"7c8cb2ed");for(var i in delete t.s,r.animationSettings||(r.animationSettings=n({},e)),e)e.hasOwnProperty(i)&&(t[i]=e[i])})),(r=function(t,n){if(Y=n,!t||!t.root||!Array.isArray(t.animations))return null;for(var r=document.getElementsByTagName("svg"),e=!1,i=0;i<r.length;i++)if(r[i].id===t.root&&!r[i].svgatorAnimation){(e=r[i]).svgatorAnimation=!0;break}if(!e)return null;var u=t.animations.map((function(t){return rt(e,t)})).filter((function(t){return!!t}));return u.length?{element:e,animations:u,animationSettings:t.animationSettings,options:t.options||void 0}:null}(r,e))?{el:r.element,options:r.options||{},player:new t(r.animations,r.animationSettings,r.options)}:null}},{key:"push",value:function(t){return this.build(t)}},{key:"init",value:function(){var t=this,n=window.__SVGATOR_PLAYER__&&window.__SVGATOR_PLAYER__["7c8cb2ed"];Array.isArray(n)&&n.splice(0).forEach((function(n){return t.build(n)}))}}]),t}();function lt(t){return v(t)+""}function ft(t){var n=arguments.length>1&&void 0!==arguments[1]?arguments[1]:" ";return t&&t.length?t.map(lt).join(n):""}function st(t){return lt(t.x)+","+lt(t.y)}function ct(t){return t?null==t.a||t.a>=1?"rgb("+t.r+","+t.g+","+t.b+")":"rgba("+t.r+","+t.g+","+t.b+","+t.a+")":"transparent"}function ht(t){return t?"url(#"+t+")":"none"}!function(){for(var t=0,n=["ms","moz","webkit","o"],r=0;r<n.length&&!window.requestAnimationFrame;++r)window.requestAnimationFrame=window[n[r]+"RequestAnimationFrame"],window.cancelAnimationFrame=window[n[r]+"CancelAnimationFrame"]||window[n[r]+"CancelRequestAnimationFrame"];window.requestAnimationFrame||(window.requestAnimationFrame=function(n){var r=Date.now(),e=Math.max(0,16-(r-t)),i=window.setTimeout((function(){n(r+e)}),e);return t=r+e,i},window.cancelAnimationFrame=window.clearTimeout)}();var vt={f:null,i:L,u:function(t,n){return function(r){var e=n(r);t.setAttribute("rx",lt(e.x)),t.setAttribute("ry",lt(e.y))}}},yt={f:null,i:function(t,n,r){return 0===t?n:1===t?r:{width:F(t,n.width,r.width),height:F(t,n.height,r.height)}},u:function(t,n){return function(r){var e=n(r);t.setAttribute("width",lt(e.width)),t.setAttribute("height",lt(e.height))}}};Object.freeze({M:2,L:2,Z:0,H:1,V:1,C:6,Q:4,T:2,S:4,A:7});var gt={},dt=null;function pt(t){var n=function(){if(dt)return dt;if("object"!==("undefined"==typeof document?"undefined":r(document))||!document.createElementNS)return{};var t=document.createElementNS("http://www.w3.org/2000/svg","svg");return t&&t.style?(t.style.position="absolute",t.style.opacity="0.01",t.style.zIndex="-9999",t.style.left="-9999px",t.style.width="1px",t.style.height="1px",dt={svg:t}):{}}().svg;if(!n)return function(t){return null};var e=document.createElementNS(n.namespaceURI,"path");e.setAttributeNS(null,"d",t),e.setAttributeNS(null,"fill","none"),e.setAttributeNS(null,"stroke","none"),n.appendChild(e);var i=e.getTotalLength();return function(t){var n=e.getPointAtLength(i*t);return{x:n.x,y:n.y}}}function bt(t){return gt[t]?gt[t]:gt[t]=pt(t)}function mt(t,n,r,e){if(!t||!e)return!1;var i=["M",t.x,t.y];if(n&&r&&(i.push("C"),i.push(n.x),i.push(n.y),i.push(r.x),i.push(r.y)),n?!r:r){var u=n||r;i.push("Q"),i.push(u.x),i.push(u.y)}return n||r||i.push("L"),i.push(e.x),i.push(e.y),i.join(" ")}function wt(t,n,r,e){var i=arguments.length>4&&void 0!==arguments[4]?arguments[4]:1,u=mt(t,n,r,e),o=bt(u);try{return o(i)}catch(t){return null}}function At(t,n,r,e){var i=1-e;return i*i*t+2*i*e*n+e*e*r}function xt(t,n,r,e){return 2*(1-e)*(n-t)+2*e*(r-n)}function kt(t,n,r,e){var i=arguments.length>4&&void 0!==arguments[4]&&arguments[4],u=wt(t,n,null,r,e);return u||(u={x:At(t.x,n.x,r.x,e),y:At(t.y,n.y,r.y,e)}),i&&(u.a=_t(t,n,r,e)),u}function _t(t,n,r,e){return Math.atan2(xt(t.y,n.y,r.y,e),xt(t.x,n.x,r.x,e))}function St(t,n,r,e,i){var u=i*i;return i*u*(e-t+3*(n-r))+3*u*(t+r-2*n)+3*i*(n-t)+t}function Ot(t,n,r,e,i){var u=1-i;return 3*(u*u*(n-t)+2*u*i*(r-n)+i*i*(e-r))}function jt(t,n,r,e,i){var u=arguments.length>5&&void 0!==arguments[5]&&arguments[5],o=wt(t,n,r,e,i);return o||(o={x:St(t.x,n.x,r.x,e.x,i),y:St(t.y,n.y,r.y,e.y,i)}),u&&(o.a=Et(t,n,r,e,i)),o}function Et(t,n,r,e,i){return Math.atan2(Ot(t.y,n.y,r.y,e.y,i),Ot(t.x,n.x,r.x,e.x,i))}function Pt(t,n,r){return t+(n-t)*r}function Mt(t,n,r){var e=arguments.length>3&&void 0!==arguments[3]&&arguments[3],i={x:Pt(t.x,n.x,r),y:Pt(t.y,n.y,r)};return e&&(i.a=It(t,n)),i}function It(t,n){return Math.atan2(n.y-t.y,n.x-t.x)}function Bt(t,n,r){var e=arguments.length>3&&void 0!==arguments[3]&&arguments[3];if(Nt(n)){if(Ft(r))return kt(n,r.start,r,t,e)}else if(Nt(r)){if(n.end)return kt(n,n.end,r,t,e)}else{if(n.end)return r.start?jt(n,n.end,r.start,r,t,e):kt(n,n.end,r,t,e);if(r.start)return kt(n,r.start,r,t,e)}return Mt(n,r,t,e)}function Rt(t,n,r){var e=Bt(t,n,r,!0);return e.a=function(t){return arguments.length>1&&void 0!==arguments[1]&&arguments[1]?t+Math.PI:t}(e.a)/g,e}function Nt(t){return!t.type||"corner"===t.type}function Ft(t){return null!=t.start&&!Nt(t)}var Tt=new B;var qt={f:function(t){return t?t.join(" "):""},i:function(t,n,e){if(0===t)return n;if(1===t)return e;var i=n.length;if(i!==e.length)return R(t,n,e);for(var u,o=new Array(i),a=0;a<i;a++){if((u=r(n[a]))!==r(e[a]))return R(t,n,e);if("number"===u)o[a]=N(t,n[a],e[a]);else{if(n[a]!==e[a])return R(t,n,e);o[a]=n[a]}}return o}},Lt={f:null,i:V,u:function(t,n){return function(r){var e=n(r);t.setAttribute("x1",lt(e[0])),t.setAttribute("y1",lt(e[1])),t.setAttribute("x2",lt(e[2])),t.setAttribute("y2",lt(e[3]))}}},Ct={f:lt,i:N},Dt={f:lt,i:T},Vt={f:function(t){var n=arguments.length>1&&void 0!==arguments[1]?arguments[1]:" ";return t&&t.length>0&&(t=t.map((function(t){return v(t,4)}))),ft(t,n)},i:function(t,n,r){var e,i,u,o=n.length,a=r.length;if(o!==a)if(0===o)n=z(o=a,0);else if(0===a)a=o,r=z(o,0);else{var l=(u=(e=o)*(i=a)/function(t,n){for(var r;n;)r=n,n=t%n,t=r;return t||1}(e,i))<0?-u:u;n=G(n,Math.floor(l/o)),r=G(r,Math.floor(l/a)),o=a=l}for(var f=[],s=0;s<o;s++)f.push(v(F(t,n[s],r[s])));return f}};function zt(t,n,r){return t.map((function(t){return function(t,n,r){var e=t.v;if(!e||"g"!==e.t||e.s||!e.v||!e.r)return t;var i=r.getElementById(e.r),u=i&&i.querySelectorAll("stop")||[];return e.s=e.v.map((function(t,n){var r=u[n]&&u[n].getAttribute("offset");return{c:t,o:r=v(parseInt(r)/100)}})),delete e.v,t}(t,0,r)}))}var Gt={gt:"gradientTransform",c:{x:"cx",y:"cy"},rd:"r",f:{x:"x1",y:"y1"},to:{x:"x2",y:"y2"}};function Yt(t,n,e,i,u,o,a,l){return zt(t,0,l),n=function(t,n,r){for(var e,i,u,o=t.length-1,a={},l=0;l<=o;l++)(e=t[l]).e&&(e.e=n(e.e)),e.v&&"g"===(i=e.v).t&&i.r&&(u=r.getElementById(i.r))&&(a[i.r]={e:u,s:u.querySelectorAll("stop")});return a}(t,i,l),function(i){var u=e(i,t,Ut);if(!u)return"none";if("c"===u.t)return ct(u.v);if("g"===u.t){if(!n[u.r])return ht(u.r);var o=n[u.r];return function(t,n){for(var r=t.s,e=r.length;e<n.length;e++){var i=r[r.length-1].cloneNode();i.id=Ht(i.id),t.e.appendChild(i),r=t.s=t.e.querySelectorAll("stop")}for(var u=0,o=r.length,a=n.length-1;u<o;u++)r[u].setAttribute("stop-color",ct(n[Math.min(u,a)].c)),r[u].setAttribute("offset",n[Math.min(u,a)].o)}(o,u.s),Object.keys(Gt).forEach((function(t){if(void 0!==u[t])if("object"!==r(Gt[t])){var n,e="gt"===t?(n=u[t],Array.isArray(n)?"matrix("+n.join(" ")+")":""):u[t],i=Gt[t];o.e.setAttribute(i,e)}else Object.keys(Gt[t]).forEach((function(n){if(void 0!==u[t][n]){var r=u[t][n],e=Gt[t][n];o.e.setAttribute(e,r)}}))})),ht(u.r)}return"none"}}function Ut(t,r,e){if(0===t)return r;if(1===t)return e;if(r&&e){var i=r.t;if(i===e.t)switch(r.t){case"c":return{t:i,v:D(t,r.v,e.v)};case"g":if(r.r===e.r){var u={t:i,s:$t(t,r.s,e.s),r:r.r};return r.gt&&e.gt&&(u.gt=V(t,r.gt,e.gt)),r.c?(u.c=q(t,r.c,e.c),u.rd=F(t,r.rd,e.rd)):r.f&&(u.f=q(t,r.f,e.f),u.to=q(t,r.to,e.to)),u}}if("c"===r.t&&"g"===e.t||"c"===e.t&&"g"===r.t){var o="c"===r.t?r:e,a="g"===r.t?n({},r):n({},e),l=a.s.map((function(t){return{c:o.v,o:t.o}}));return a.s="c"===r.t?$t(t,l,a.s):$t(t,a.s,l),a}}return R(t,r,e)}function $t(t,n,r){if(n.length===r.length)return n.map((function(n,e){return Qt(t,n,r[e])}));for(var e=Math.max(n.length,r.length),i=[],u=0;u<e;u++){var o=Qt(t,n[Math.min(u,n.length-1)],r[Math.min(u,r.length-1)]);i.push(o)}return i}function Qt(t,n,r){return{o:T(t,n.o,r.o||0),c:D(t,n.c,r.c||{})}}function Ht(t){return t.replace(/-fill-([0-9]+)$/,(function(t,n){return"-fill-"+(+n+1)}))}var Jt={blur:L,brightness:F,contrast:F,"drop-shadow":function(t,n,r){return 0===t?n:1===t?r:{blur:L(t,n.blur,r.blur),offset:q(t,n.offset,r.offset),color:D(t,n.color,r.color)}},grayscale:F,"hue-rotate":N,invert:F,opacity:F,saturate:F,sepia:F};function Zt(t,n,r){if(0===t)return n;if(1===t)return r;var e=n.length;if(e!==r.length)return R(t,n,r);for(var i,u=[],o=0;o<e;o++){if(n[o].type!==r[o].type)return n;if(!(i=Jt[n[o].type]))return R(t,n,r);u.push({type:n.type,value:i(t,n[o].value,r[o].value)})}return u}var Kt={blur:function(t){return t?function(n){t.setAttribute("stdDeviation",st(n))}:null},brightness:function(t,n,r){return(t=Xt(r,n))?function(n){n=lt(n),t.map((function(t){return t.setAttribute("slope",n)}))}:null},contrast:function(t,n,r){return(t=Xt(r,n))?function(n){var r=lt((1-n)/2);n=lt(n),t.map((function(t){t.setAttribute("slope",n),t.setAttribute("intercept",r)}))}:null},"drop-shadow":function(t,n,r){var e=r.getElementById(n+"-blur");if(!e)return null;var i=r.getElementById(n+"-offset");if(!i)return null;var u=r.getElementById(n+"-flood");return u?function(t){e.setAttribute("stdDeviation",st(t.blur)),i.setAttribute("dx",lt(t.offset.x)),i.setAttribute("dy",lt(t.offset.y)),u.setAttribute("flood-color",ct(t.color))}:null},grayscale:function(t){return t?function(n){t.setAttribute("values",ft(function(t){return[.2126+.7874*(t=1-t),.7152-.7152*t,.0722-.0722*t,0,0,.2126-.2126*t,.7152+.2848*t,.0722-.0722*t,0,0,.2126-.2126*t,.7152-.7152*t,.0722+.9278*t,0,0,0,0,0,1,0]}(n)))}:null},"hue-rotate":function(t){return t?function(n){return t.setAttribute("values",lt(n))}:null},invert:function(t,n,r){return(t=Xt(r,n))?function(n){n=lt(n)+" "+lt(1-n),t.map((function(t){return t.setAttribute("tableValues",n)}))}:null},opacity:function(t,n,r){return(t=r.getElementById(n+"-A"))?function(n){return t.setAttribute("tableValues","0 "+lt(n))}:null},saturate:function(t){return t?function(n){return t.setAttribute("values",lt(n))}:null},sepia:function(t){return t?function(n){return t.setAttribute("values",ft(function(t){return[.393+.607*(t=1-t),.769-.769*t,.189-.189*t,0,0,.349-.349*t,.686+.314*t,.168-.168*t,0,0,.272-.272*t,.534-.534*t,.131+.869*t,0,0,0,0,0,1,0]}(n)))}:null}};var Wt=["R","G","B"];function Xt(t,n){var r=Wt.map((function(r){return t.getElementById(n+"-"+r)||null}));return-1!==r.indexOf(null)?null:r}var tn={fill:Yt,"fill-opacity":Dt,stroke:Yt,"stroke-opacity":Dt,"stroke-width":Ct,"stroke-dashoffset":{f:lt,i:N},"stroke-dasharray":Vt,opacity:Dt,transform:function(t,n,e,i){if(!(t=function(t,n){if(!t||"object"!==r(t))return null;var e=!1;for(var i in t)t.hasOwnProperty(i)&&(t[i]&&t[i].length?(t[i].forEach((function(t){t.e&&(t.e=n(t.e))})),e=!0):delete t[i]);return e?t:null}(t,i)))return null;var u=function(r,i,u){var o=arguments.length>3&&void 0!==arguments[3]?arguments[3]:null;return t[r]?e(i,t[r],u):n&&n[r]?n[r]:o};return n&&n.a&&t.o?function(n){var r=e(n,t.o,Rt);return Tt.recomposeSelf(r,u("r",n,N,0)+r.a,u("k",n,q),u("s",n,q),u("t",n,q)).toString()}:function(t){return Tt.recomposeSelf(u("o",t,Bt,null),u("r",t,N,0),u("k",t,q),u("s",t,q),u("t",t,q)).toString()}},"#filter":function(t,n,r,e,i,u,o,a){if(!n.items||!t||!t.length)return null;var l=function(t,n){var r=(t=t.map((function(t){return t&&Kt[t[0]]?(n.getElementById(t[1]),Kt[t[0]](n.getElementById(t[1]),t[1],n)):null}))).length;return function(n){for(var e=0;e<r;e++)t[e]&&t[e](n[e].value)}}(n.items,a);return l?(t=function(t,n){return t.map((function(t){return t.e=n(t.e),t}))}(t,e),function(n){l(r(n,t,Zt))}):null},"#line":Lt,points:{f:ft,i:V},d:qt,r:Ct,"#size":yt,"#radius":vt,_:function(t,n){if(Array.isArray(t))for(var r=0;r<t.length;r++)this[t[r]]=n;else this[t]=n}},nn=function(t){!function(t,n){if("function"!=typeof n&&null!==n)throw new TypeError("Super expression must either be null or a function");t.prototype=Object.create(n&&n.prototype,{constructor:{value:t,writable:!0,configurable:!0}}),n&&l(t,n)}(r,t);var n=s(r);function r(){return e(this,r),n.apply(this,arguments)}return u(r,null,[{key:"build",value:function(t){var n=c(a(r),"build",this).call(this,t,tn);if(!n)return null;n.el,n.options,function(t,n,r){t.play()}(n.player)}}]),r}(at);return nn.init(),nn}));
(function(s,i,o,w){w[o]=w[o]||{};w[o][s]=w[o][s]||[];w[o][s].push(i);})('7c8cb2ed',{"root":"esTBhwk1GZj1","animations":[{"elements":{"esTBhwk1GZj56":{"d":[{"t":0,"v":["M",184.065449,100.546679,"C",183.865449,101.046679,236.3,27.5,322.9,11.4,"C",325.4,14.1,320.3,8.9,320.3,8.9,"C",320.3,8.9,216.665449,30.846679,184.065449,100.546679,"Z"]},{"t":3000,"v":["M",188.720447,94.872466,"C",188.520447,95.372466,229.631354,35.576095,326.877188,29.972,"C",329.377188,32.672,317.558515,28.124738,317.558515,28.124738,"C",317.558515,28.124738,221.320447,25.172466,188.720447,94.872466,"Z"]}],"transform":{"data":{"t":{"x":-258.259988,"y":-46.55576}},"keys":{"o":[{"t":0,"v":{"x":254.185722,"y":55.50268,"type":"corner"}},{"t":3000,"v":{"x":255.595816,"y":52.854805,"type":"corner"}}],"r":[{"t":0,"v":-6.418511},{"t":3000,"v":-5.033627}]}}}},"s":"MDA1OMzkwMzc3OThhODc3Njg5Tkk3XZTg0ODMzNzRmNDg0NTQ1NDVNFSzQxMzc3OTdlODc3YTc4ODk3OZTg0ODNMMzc0Zk00MjQ2NDEzINzdlODk3YTg3NzZLODk3ZU84CNDgzODgzNzRmNDU0MTM3N2I3CZTgxODFEMzc0ZjQ2NDEzN003NNjgxODk3YVI4NzgzNzY4OTdhWMzc0Zjg5ODc4YTdhNDEzNzg4TODU3YTdhNzkzNzRmNDY5Mg|"}],"options":"MDAxWMDhmMzY4Nzg4UDc1ODY4ODM2QNGUzNlI4MDgzNzU3ODM2OTE/C"},'__SVGATOR_PLAYER__',window)]]></script></svg>