<svg width="348" height="556" viewBox="0 0 348 556" fill="none" xmlns="http://www.w3.org/2000/svg">
<path d="M145.354 22.0614C145.791 21.4614 146.337 20.7614 147.211 20.3614C149.395 19.3614 152.234 18.2614 152.452 18.6614C152.671 19.1614 150.159 20.4614 150.159 20.4614C150.159 20.4614 152.78 20.4614 154.2 20.6614C155.619 20.8614 157.258 21.3614 157.148 21.7614C157.039 22.2614 153.872 21.9614 153.872 21.9614C153.872 21.9614 157.476 22.2614 157.258 22.9614C157.039 23.6614 153.326 23.0614 153.326 23.0614C153.326 23.0614 156.275 23.7614 155.838 24.4614C155.51 25.1614 152.234 24.1614 152.234 24.1614C152.234 24.1614 154.309 25.0614 153.981 25.6614C153.763 26.1614 150.596 25.3614 148.849 25.1614C146.992 24.9614 145.9 24.5614 145.682 24.5614C144.48 24.2614 144.808 22.6614 145.354 22.0614Z" fill="#EEBDAE"/>
<path d="M245.277 367.361L233.374 371.361L221.47 385.061L244.622 446.561C244.622 446.561 225.402 453.661 214.59 456.761C203.779 459.861 89.8766 479.161 43.1363 338.661C-3.71326 197.961 96.2106 140.861 112.701 136.361C141.531 170.761 141.859 213.861 141.859 213.861C141.859 213.861 114.23 224.661 114.23 255.061C114.23 276.961 124.386 327.661 144.261 362.161C154.854 380.561 169.27 390.761 186.852 389.761C207.82 388.461 212.297 369.761 212.297 369.761L242.22 359.261L245.277 367.361Z" fill="url(#paint0_linear)"/>
<path d="M239.656 429.614L268.364 420.571L269.927 424.731L241.22 433.775L239.656 429.614Z" fill="white"/>
<path d="M237.573 428.243L240.361 427.364L243.345 435.307L240.557 436.186L237.573 428.243Z" fill="white"/>
<path d="M141.641 213.862L196.135 196.662L167.086 119.162L112.592 136.362L141.641 213.862Z" fill="url(#paint1_linear)"/>
<path d="M112.517 136.291L114.996 135.511L144.126 213.05L141.648 213.831L112.517 136.291Z" fill="white"/>
<path d="M153.893 123.28L167.008 119.149L196.138 196.688L183.024 200.819L153.893 123.28Z" fill="white"/>
<path opacity="0.21" d="M82.4506 321.062C54.4938 224.462 93.0436 186.462 126.788 174.962C146.992 168.062 177.46 158.262 181.282 157.062L196.134 196.662L141.64 213.862C141.64 213.862 114.011 224.662 114.011 255.062C114.011 276.962 124.167 327.662 144.043 362.162C154.636 380.562 169.051 390.762 186.634 389.762C207.601 388.462 212.079 369.762 212.079 369.762L242.22 359.262L245.277 367.262L233.374 371.262L221.47 384.962L232.937 415.562C222.126 418.962 207.274 423.462 192.967 427.162C160.315 435.562 107.896 409.062 82.4506 321.062Z" fill="#EF9F8E"/>
<path d="M259.584 375.462L305.341 361.062C311.457 359.162 314.733 352.962 312.658 347.362L309.382 338.562L241.456 359.962L244.732 368.762C246.807 374.362 253.468 377.362 259.584 375.462Z" fill="white"/>
<path d="M132.316 17.1819L165.981 6.57715L197.527 90.5464L163.862 101.151L132.316 17.1819Z" fill="#FACEC1"/>
<path d="M128.208 11.7617L165.557 0.0617045C166.212 -0.138296 166.977 0.161704 167.195 0.761704L169.925 7.9617C170.144 8.5617 169.816 9.2617 169.161 9.4617L131.812 21.2617C131.157 21.4617 130.393 21.1617 130.174 20.5617L127.444 13.3617C127.226 12.6617 127.553 11.9617 128.208 11.7617Z" fill="white"/>
<path d="M169.926 117.519L203.591 106.915L258.832 253.955L225.167 264.56L169.926 117.519Z" fill="#FACEC1"/>
<path d="M169.976 117.568L203.641 106.963L251.813 235.186L218.148 245.791L169.976 117.568Z" fill="white"/>
<path d="M222.562 261.462L258.928 250.062C259.911 249.762 260.894 250.262 261.222 251.062L263.624 257.362C263.952 258.262 263.406 259.162 262.532 259.462L226.276 270.862C225.293 271.162 224.31 270.662 223.982 269.862L221.58 263.562C221.143 262.762 221.58 261.762 222.562 261.462Z" fill="white"/>
<path d="M202.359 234.661L256.853 217.461L201.595 70.4614L147.101 87.5614L202.359 234.661Z" fill="url(#paint2_linear)"/>
<path d="M154.418 76.4614L188.381 65.9614L201.595 70.4614L147.101 87.5614L154.418 76.4614Z" fill="white"/>
<path d="M196.025 230.461L259.037 210.661C260.239 210.261 261.658 210.861 262.095 212.061L264.935 219.761C265.371 220.861 264.716 222.161 263.406 222.561L200.394 242.361C199.192 242.761 197.773 242.161 197.336 240.961L194.496 233.261C194.06 232.061 194.715 230.861 196.025 230.461Z" fill="white"/>
<path d="M149.176 177.162C141.818 177.162 135.853 171.7 135.853 164.962C135.853 158.224 141.818 152.762 149.176 152.762C156.534 152.762 162.499 158.224 162.499 164.962C162.499 171.7 156.534 177.162 149.176 177.162Z" fill="url(#paint3_linear)"/>
<path opacity="0.21" d="M223.764 269.861L221.361 263.561C221.034 262.661 221.58 261.761 222.453 261.461L223.764 261.061L217.976 245.761L214.918 237.661L200.285 242.261C199.083 242.661 197.664 242.061 197.227 240.861L194.387 233.161C193.951 232.061 194.606 230.761 195.916 230.361L200.175 229.061L146.992 87.5614L154.418 76.4614H154.527L133.559 20.6614L131.703 21.2614C131.048 21.4614 130.283 21.1614 130.065 20.5614L127.335 13.3614C127.116 12.7614 127.444 12.0614 128.099 11.8614L145.354 6.46143L242.766 265.761L225.948 271.061C225.184 271.261 224.092 270.761 223.764 269.861Z" fill="#EF9F8E"/>
<path d="M266.573 430.262L331.55 409.762C332.315 409.562 332.642 408.862 332.424 408.162L328.929 398.762C328.711 398.062 327.947 397.762 327.182 397.962L262.204 418.462C261.44 418.662 261.112 419.362 261.331 420.062L264.825 429.462C265.044 430.162 265.808 430.562 266.573 430.262Z" fill="white"/>
<path d="M204.543 352.462L333.079 311.962C338.758 310.162 345.092 312.962 347.058 318.162C349.023 323.362 345.966 329.162 340.287 330.962L211.751 371.462C206.072 373.262 199.738 370.462 197.773 365.262C195.807 359.962 198.865 354.262 204.543 352.462Z" fill="url(#paint4_linear)"/>
<path opacity="0.21" d="M340.287 330.962L211.751 371.462C206.618 373.062 201.049 370.962 198.537 366.662L347.495 319.762C348.368 324.462 345.42 329.262 340.287 330.962Z" fill="#EF9F8E"/>
<path d="M160.752 147.161C148.749 147.161 139.02 138.252 139.02 127.261C139.02 116.271 148.749 107.361 160.752 107.361C172.754 107.361 182.484 116.271 182.484 127.261C182.484 138.252 172.754 147.161 160.752 147.161Z" fill="url(#paint5_linear)"/>
<path d="M204.653 382.262L230.644 451.462C229.879 451.762 229.006 452.062 228.132 452.262L202.469 384.062C203.233 383.462 203.997 382.862 204.653 382.262Z" fill="white"/>
<path d="M138.91 432.761C130.501 453.261 100.907 528.361 100.907 528.361H203.342C203.342 528.361 205.417 465.361 205.745 445.461C206.072 428.161 197.663 412.061 179.208 408.561C160.752 404.961 147.319 412.261 138.91 432.761Z" fill="url(#paint6_linear)"/>
<path d="M172.874 447.261C163.706 447.261 156.274 440.456 156.274 432.061C156.274 423.667 163.706 416.861 172.874 416.861C182.041 416.861 189.473 423.667 189.473 432.061C189.473 440.456 182.041 447.261 172.874 447.261Z" fill="url(#paint7_linear)"/>
<path d="M-0.00012207 555.461H347.058V542.161C347.058 533.661 339.523 526.861 330.349 526.861H16.8176C7.5351 526.861 0.10907 533.761 0.10907 542.161V555.461H-0.00012207Z" fill="white"/>
<defs>
<linearGradient id="paint0_linear" x1="174.886" y1="470.597" x2="83.9179" y2="59.9825" gradientUnits="userSpaceOnUse">
<stop stop-color="#FACEC1"/>
<stop offset="1" stop-color="white"/>
</linearGradient>
<linearGradient id="paint1_linear" x1="162.518" y1="189.343" x2="140.367" y2="115.418" gradientUnits="userSpaceOnUse">
<stop stop-color="#FACEC1"/>
<stop offset="1" stop-color="white"/>
</linearGradient>
<linearGradient id="paint2_linear" x1="235.631" y1="245.415" x2="176.667" y2="51.4104" gradientUnits="userSpaceOnUse">
<stop stop-color="white"/>
<stop offset="0.6703" stop-color="#FACEC1"/>
</linearGradient>
<linearGradient id="paint3_linear" x1="162.435" y1="164.946" x2="135.894" y2="164.946" gradientUnits="userSpaceOnUse">
<stop stop-color="white"/>
<stop offset="0.6703" stop-color="white"/>
</linearGradient>
<linearGradient id="paint4_linear" x1="339.655" y1="320.438" x2="200.266" y2="372.958" gradientUnits="userSpaceOnUse">
<stop stop-color="white"/>
<stop offset="0.6703" stop-color="#FACEC1"/>
</linearGradient>
<linearGradient id="paint5_linear" x1="182.47" y1="127.25" x2="139.045" y2="127.25" gradientUnits="userSpaceOnUse">
<stop stop-color="#FAFAFC"/>
<stop offset="0.6703" stop-color="white"/>
</linearGradient>
<linearGradient id="paint6_linear" x1="162.944" y1="401.997" x2="148.421" y2="604.441" gradientUnits="userSpaceOnUse">
<stop stop-color="white"/>
<stop offset="0.6703" stop-color="#FACEC1"/>
</linearGradient>
<linearGradient id="paint7_linear" x1="185.342" y1="428.619" x2="153.95" y2="438.881" gradientUnits="userSpaceOnUse">
<stop stop-color="white"/>
<stop offset="0.6703" stop-color="white"/>
</linearGradient>
</defs>
</svg>
