<svg width="43" height="43" viewBox="0 0 43 43" fill="none" xmlns="http://www.w3.org/2000/svg">
<circle cx="21.5" cy="21.5" r="21.5" fill="#FCCEC0"/>
<path d="M12.3389 20.6868C11.7866 20.6868 11.3389 21.1345 11.3389 21.6868C11.3389 22.2391 11.7866 22.6868 12.3389 22.6868V20.6868ZM31.3677 22.3939C31.7582 22.0034 31.7582 21.3702 31.3677 20.9797L25.0037 14.6157C24.6132 14.2252 23.98 14.2252 23.5895 14.6157C23.199 15.0062 23.199 15.6394 23.5895 16.0299L29.2464 21.6868L23.5895 27.3436C23.199 27.7341 23.199 28.3673 23.5895 28.7578C23.98 29.1484 24.6132 29.1484 25.0037 28.7578L31.3677 22.3939ZM12.3389 22.6868H30.6606V20.6868H12.3389V22.6868Z" fill="#002733"/>
</svg>
