<svg width="19" height="22" viewBox="0 0 19 22" fill="none" xmlns="http://www.w3.org/2000/svg">
<path d="M0.527778 6.54054C0.527778 8.44324 2.32222 9.51351 3.16667 9.51351V6.5C3.16667 6.5 3.73667 4.45135 4.75 3.5C5.76333 2.54865 6.54445 2.18018 6.96667 2.37838V7.72973C6.96667 11.2973 6.33333 14.2703 4.43333 17.2432C3.609 18.5331 1.26667 21.009 0 22H7.6L9.5 10.1081H14.5667L15.2 7.72973H10.7667L11.4 2.37838C12.6667 2.57658 15.58 2.97297 17.1 2.97297C18.62 2.97297 19 0.990991 19 0H12.6667H7.6C7.17778 0 5.95333 0.118919 4.43333 0.594595C1.90031 1.38729 1.05556 3.5 1.05556 3.5C1.05556 3.5 0.527778 4.63784 0.527778 6.54054Z" fill="#0D4B5E"/>
</svg>
