<svg width="22" height="22" viewBox="0 0 22 22" fill="none" xmlns="http://www.w3.org/2000/svg">
<path d="M1 10.9999C2.69229 9.30763 4.23074 7.76918 5.92303 6.07689C8.5384 6.23073 11.1538 6.23073 13.7691 6.38457C15.3076 4.53843 16.9999 2.84614 18.5383 1" stroke="#0D4B5E" stroke-width="2" stroke-miterlimit="10" stroke-linecap="round" stroke-linejoin="round"/>
<path d="M2.07666 16.0769C3.76895 14.3846 5.30741 12.8462 6.99971 11.1539C9.61507 11.3077 12.2304 11.3077 14.8458 11.4616C16.3842 9.61543 18.0765 7.92314 19.615 6.077" stroke="#0D4B5E" stroke-width="2" stroke-miterlimit="10" stroke-linecap="round" stroke-linejoin="round"/>
<path d="M3.46143 20.9998C5.15372 19.3075 6.69217 17.7691 8.38446 16.0768C10.9998 16.2306 13.6152 16.2306 16.2306 16.3845C17.769 14.5384 19.4613 12.846 20.9998 10.9999" stroke="#0D4B5E" stroke-width="2" stroke-miterlimit="10" stroke-linecap="round" stroke-linejoin="round"/>
</svg>
