<svg width="45" height="45" viewBox="0 0 45 45" fill="none" xmlns="http://www.w3.org/2000/svg">
<path d="M45 22.5C45 10.122 34.939 0 22.5 0C10.061 0 0 10.122 0 22.5C0 34.878 10.122 45 22.5 45C34.8781 45 45 34.878 45 22.5ZM22.5 6.82927C24.3902 6.82927 25.9146 8.35366 25.9146 10.2439C25.9146 12.1341 24.3902 13.6585 22.5 13.6585C20.6098 13.6585 19.0854 12.1341 19.0854 10.2439C19.0854 8.41463 20.6098 6.82927 22.5 6.82927ZM19.0854 36.6463C18.7805 37.3171 18.1707 37.6829 17.5 37.6829C17.2561 37.6829 17.0122 37.6219 16.7683 37.5C15.8537 37.0732 15.4878 36.0366 15.9146 35.1219C15.9146 35.1219 19.2683 27.439 19.878 24.6341C20.122 23.6585 20.2439 21.0366 20.3049 19.8171C20.3049 19.3902 20.061 19.0244 19.6951 18.9024L12.1341 16.7073C11.1585 16.4024 10.6098 15.3659 10.9146 14.4512C11.2195 13.5366 12.2561 13.1098 13.1707 13.3537C13.1707 13.3537 20.061 15.5488 22.5 15.5488C24.939 15.5488 31.9512 13.2927 31.9512 13.2927C32.8659 13.0488 33.9024 13.5976 34.1463 14.5122C34.3902 15.4268 33.8415 16.4634 32.9268 16.7073L25.4268 18.9634C25.061 19.0854 24.7561 19.4512 24.8171 19.878C24.878 21.0976 25 23.7195 25.2439 24.6951C25.8537 27.5 29.2073 35.1829 29.2073 35.1829C29.6341 36.0976 29.2073 37.1341 28.3537 37.561C28.1098 37.6829 27.8659 37.7439 27.622 37.7439C26.9512 37.7439 26.2805 37.378 26.0366 36.7073L22.5 29.3293L19.0854 36.6463Z" fill="white"/>
</svg>
