<svg width="22" height="22" viewBox="0 0 22 22" fill="none" xmlns="http://www.w3.org/2000/svg">
<path d="M10.7711 14.2826C12.7947 14.2826 14.4352 12.6421 14.4352 10.6184C14.4352 8.59479 12.7947 6.95428 10.7711 6.95428C8.74743 6.95428 7.10693 8.59479 7.10693 10.6184C7.10693 12.6421 8.74743 14.2826 10.7711 14.2826Z" stroke="#0D4B5E" stroke-width="2" stroke-miterlimit="10" stroke-linecap="round" stroke-linejoin="round"/>
<path d="M1 8.17562V5.12216C1 2.83207 2.83207 1 5.12217 1H8.17562" stroke="#0D4B5E" stroke-width="2" stroke-miterlimit="10"/>
<path d="M20.9998 8.17562V5.12216C20.9998 2.83207 19.1678 1 16.8777 1H13.8242" stroke="#0D4B5E" stroke-width="2" stroke-miterlimit="10"/>
<path d="M20.9998 13.0612V16.1146C20.9998 18.4047 19.1678 20.2368 16.8777 20.2368H13.8242" stroke="#0D4B5E" stroke-width="2" stroke-miterlimit="10"/>
<path d="M1 13.3665V16.4199C1 18.71 2.83207 20.5421 5.12217 20.5421H8.17562" stroke="#0D4B5E" stroke-width="2" stroke-miterlimit="10"/>
</svg>
