<svg width="22" height="20" viewBox="0 0 22 20" fill="none" xmlns="http://www.w3.org/2000/svg">
<path d="M3.37043 6.4798C2.98812 4.69568 3.75274 3.03899 5.02711 2.01949C6.6838 0.872557 8.97767 0.872563 10.6344 2.27437C10.6344 2.14694 11.2715 1.12744 12.5459 1C13.5654 1 14.7124 1.76462 14.9672 3.039C15.8593 2.27437 17.1337 2.27437 18.0257 2.91156C18.7904 3.54875 19.1727 4.69568 18.7904 5.71518C20.3196 6.86212 21.2117 8.77369 20.9568 10.5578C20.5745 12.8517 18.7904 13.9986 18.5355 14.1261C18.4081 15.7827 17.2611 17.1846 15.7319 17.6943C14.2026 18.2041 12.4185 17.8217 11.2715 16.6748C10.6344 17.6943 9.48743 18.2041 8.46793 18.0766C7.06612 17.9492 5.79174 16.4199 5.91918 14.6358C3.88018 14.8907 1.84118 13.6163 1.20399 11.5773C0.566801 9.66574 1.45887 7.4993 3.37043 6.4798Z" stroke="#0D4B5E" stroke-width="2" stroke-miterlimit="10" stroke-linecap="round" stroke-linejoin="round"/>
</svg>
