<svg width="121" height="121" viewBox="0 0 121 121" fill="none" xmlns="http://www.w3.org/2000/svg">
<circle cx="60.5" cy="60.5" r="60.5" fill="#FCCEC0"/>
<path d="M34.7217 59.526C33.8933 59.526 33.2217 60.1976 33.2217 61.026C33.2217 61.8544 33.8933 62.526 34.7217 62.526V59.526ZM87.3389 62.0867C87.9246 61.5009 87.9246 60.5511 87.3389 59.9653L77.7929 50.4194C77.2071 49.8336 76.2574 49.8336 75.6716 50.4194C75.0858 51.0052 75.0858 51.9549 75.6716 52.5407L84.1569 61.026L75.6716 69.5113C75.0858 70.0971 75.0858 71.0468 75.6716 71.6326C76.2574 72.2184 77.2071 72.2184 77.7929 71.6326L87.3389 62.0867ZM34.7217 62.526H86.2782V59.526H34.7217V62.526Z" fill="#002733"/>
</svg>
